# xmcd
#
# Track frame offsets: 
#        150
#        17163
#        31678
#        49792
#        72270
#        91892
#        104622
#        119263
#        132560
#        153772
#        185363
#        203423
#        216582
#        234133
#        254253
#        276334
#        299483
#        316777
#
# Disc length: 4439 seconds
#
# Revision: 1
# Processed by: cddbd v1.5.2PL0 Copyright (c) Steve Scherf et al.
# Submitted via: ExactAudioCopyFreeDBPlugin 1.0
#
DISCID=fe115512
DTITLE=Various Artist - 午後のボッサ カフェ ディズニー
DYEAR=2011
DGENRE=Jazz
TTITLE0=Beauty and The Beast～「美女と野獣」
TTITLE1=君はともだち～「トイ・ストーリー」
TTITLE2=愛を感じて～「ライオン・キング」
TTITLE3=カラー・オブ・ザ・ウィンド～「ポカホンタス」
TTITLE4=誰かが待っている～「ビアンカの大冒険」
TTITLE5=夢はひそかに～「シンデレラ」
TTITLE6=いつか王子様が～「白雪姫」
TTITLE7=イッツ・ア・スモール・ワールド
TTITLE8=アンダー・ザ・シー~「リトル・マーメイド」
TTITLE9=アイル・トライ～「ピーター・パン2」
TTITLE10=右から2番目の星～「ピーター・パン」
TTITLE11=ジッパ・ディー・ドゥー・ダー～「南部の唄」
TTITLE12=星に願いを～「ピノキオ」
TTITLE13=リフレクション～「ムーラン」
TTITLE14=イッツ・ノット・イージー～「ピートとドラゴン」
TTITLE15=魔法を信じるかい?～「ピーター・パン2」
TTITLE16=ホール・ニュー・ワールド～「アラジン」
TTITLE17=Bibbidi Bobbidi Boo～「シンデレラ」
EXTD=YEAR: 2011
EXTT0=
EXTT1=
EXTT2=
EXTT3=
EXTT4=
EXTT5=
EXTT6=
EXTT7=
EXTT8=
EXTT9=
EXTT10=
EXTT11=
EXTT12=
EXTT13=
EXTT14=
EXTT15=
EXTT16=
EXTT17=
PLAYORDER=
